<svg id="Group_1244" data-name="Group 1244" xmlns="http://www.w3.org/2000/svg" width="9.063" height="9.063" viewBox="0 0 9.063 9.063">
  <path id="Icon_awesome-minus" data-name="Icon awesome-minus" d="M8.415,14.625H.647A.647.647,0,0,0,0,15.272v.647a.647.647,0,0,0,.647.647H8.415a.647.647,0,0,0,.647-.647v-.647A.647.647,0,0,0,8.415,14.625Z" transform="translate(0 -11.064)" fill="#f46b0d"/>
  <path id="Icon_awesome-minus-2" data-name="Icon awesome-minus" d="M8.415,0H.647A.647.647,0,0,0,0,.647v.647a.647.647,0,0,0,.647.647H8.415a.647.647,0,0,0,.647-.647V.647A.647.647,0,0,0,8.415,0Z" transform="translate(5.502) rotate(90)" fill="#f46b0d"/>
</svg>
