<svg id="Component_27_21" data-name="Component 27 – 21" xmlns="http://www.w3.org/2000/svg" width="33.841" height="30.081" viewBox="0 0 33.841 30.081">
  <g id="Component_30_1" data-name="Component 30 – 1">
    <path id="Icon_awesome-shopping-cart" data-name="Icon awesome-shopping-cart" d="M31.028,17.7l2.777-12.22A1.41,1.41,0,0,0,32.431,3.76H9.354L8.815,1.127A1.41,1.41,0,0,0,7.434,0H1.41A1.41,1.41,0,0,0,0,1.41v.94A1.41,1.41,0,0,0,1.41,3.76H5.516L9.643,23.938a3.29,3.29,0,1,0,3.939.5H25.9a3.289,3.289,0,1,0,3.737-.611L29.96,22.4a1.41,1.41,0,0,0-1.375-1.723H12.815L12.43,18.8H29.653A1.41,1.41,0,0,0,31.028,17.7Z" fill="#fff"/>
  </g>
</svg>
