<svg xmlns="http://www.w3.org/2000/svg" width="14.942" height="21.689" viewBox="0 0 14.942 21.689">
  <path id="Path_196" data-name="Path 196" d="M33.589,10.4a6.747,6.747,0,0,0-.35-.868A7.431,7.431,0,0,0,19,11.728v.926c0,.039.013.386.032.559.27,2.159,1.974,4.454,3.246,6.613,1.369,2.313,2.789,4.589,4.2,6.863.868-1.484,1.732-2.988,2.58-4.434.231-.424.5-.849.73-1.253.154-.27.449-.539.583-.79,1.369-2.506,3.572-5.032,3.572-7.519V11.671a7.7,7.7,0,0,0-.353-1.272M26.43,15.045a2.652,2.652,0,0,1-2.539-1.812,2.512,2.512,0,0,1-.071-.675v-.6a2.511,2.511,0,0,1,2.693-2.468,2.731,2.731,0,0,1,2.736,2.777,2.8,2.8,0,0,1-2.819,2.776" transform="translate(-19 -5)" fill="#f46b0d"/>
</svg>
