<svg id="Group_1301" data-name="Group 1301" xmlns="http://www.w3.org/2000/svg" width="15.356" height="15.356" viewBox="0 0 15.356 15.356">
  <path id="Path_104" data-name="Path 104" d="M16.878,13.482l-2.171-.248a1.7,1.7,0,0,0-1.4.487l-1.573,1.573A12.861,12.861,0,0,1,6.1,9.661L7.68,8.079a1.7,1.7,0,0,0,.487-1.4L7.919,4.523a1.711,1.711,0,0,0-1.7-1.513H4.739a1.7,1.7,0,0,0-1.71,1.77A14.525,14.525,0,0,0,16.613,18.363a1.7,1.7,0,0,0,1.77-1.71V15.174A1.694,1.694,0,0,0,16.878,13.482Z" transform="translate(-3.026 -3.01)" fill="#f46b0d"/>
</svg>
