<svg xmlns="http://www.w3.org/2000/svg" width="21.689" height="21.689" viewBox="0 0 21.689 21.689">
  <g id="Group_1302" data-name="Group 1302" transform="translate(-1 -1)">
    <path id="Path_193" data-name="Path 193" d="M13.507,7a6.507,6.507,0,1,0,6.507,6.507A6.507,6.507,0,0,0,13.507,7Zm1.084,5.784a1.446,1.446,0,0,1,1.446,1.446V16.4a1.446,1.446,0,0,1-1.446,1.446H14.23v.723a.723.723,0,1,1-1.446,0v-.723H11.7a.723.723,0,1,1,0-1.446h2.892V14.23H12.422a1.446,1.446,0,0,1-1.446-1.446V10.615a1.446,1.446,0,0,1,1.446-1.446h.361V8.446a.723.723,0,1,1,1.446,0v.723h1.084a.723.723,0,1,1,0,1.446H12.422v2.169Z" transform="translate(-1.662 -1.662)" fill="#f46b0d"/>
    <path id="Path_194" data-name="Path 194" d="M11.845,1A10.845,10.845,0,1,0,22.689,11.845,10.845,10.845,0,0,0,11.845,1Zm0,18.8A7.953,7.953,0,1,1,19.8,11.845,7.953,7.953,0,0,1,11.845,19.8Z" transform="translate(0 0)" fill="#f46b0d"/>
  </g>
</svg>
