<svg id="Group_22" data-name="Group 22" xmlns="http://www.w3.org/2000/svg" xmlns:xlink="http://www.w3.org/1999/xlink" width="332.393" height="309.706" viewBox="0 0 332.393 309.706">
  <defs>
    <linearGradient id="linear-gradient" x1="0.505" y1="1.007" x2="0.505" gradientUnits="objectBoundingBox">
      <stop offset="0" stop-color="gray" stop-opacity="0.251"/>
      <stop offset="0.54" stop-color="gray" stop-opacity="0.122"/>
      <stop offset="1" stop-color="gray" stop-opacity="0.102"/>
    </linearGradient>
  </defs>
  <g id="Group_2" data-name="Group 2" transform="translate(100.999 33.885)">
    <rect id="Rectangle_76" data-name="Rectangle 76" width="4.049" height="33.367" rx="2.024" transform="translate(133.259 62.444)" fill="#3f3d56"/>
    <rect id="Rectangle_80" data-name="Rectangle 80" width="135.443" height="275.269" rx="11" fill="#3f3d56"/>
    <path id="Path_176" data-name="Path 176" d="M572.687,199H557.15v1.869a8.856,8.856,0,0,1-8.861,8.856H498.878a8.856,8.856,0,0,1-8.861-8.856V199H475.471a10.757,10.757,0,0,0-10.757,10.757V449.191a10.757,10.757,0,0,0,10.757,10.757h97.216a10.757,10.757,0,0,0,10.757-10.757V209.775A10.757,10.757,0,0,0,572.687,199Z" transform="translate(-456.095 -191.83)" fill="#fff"/>
    <rect id="Rectangle_81" data-name="Rectangle 81" width="18.913" height="3.839" rx="1.919" transform="translate(54.657 8.221)" fill="#e6e8ec"/>
    <circle id="Ellipse_5" data-name="Ellipse 5" cx="2.18" cy="2.18" r="2.18" transform="translate(76.431 7.96)" fill="#e6e8ec"/>
    <circle id="Ellipse_11" data-name="Ellipse 11" cx="25.622" cy="25.622" r="25.622" transform="translate(42.927 115.392)" fill="#fff"/>
    <path id="Path_222" data-name="Path 222" d="M588.7,443.856a34.245,34.245,0,1,1-34.245-34.246A34.245,34.245,0,0,1,588.7,443.856Zm-38.2,18.126,25.4-25.4a2.207,2.207,0,0,0,0-3.126l-3.126-3.1a2.2,2.2,0,0,0-3.121,0L548.935,451.07l-9.674-9.7a2.216,2.216,0,0,0-3.126,0l-3.125,3.144a2.216,2.216,0,0,0,0,3.126L547.372,462a2.207,2.207,0,0,0,3.126,0Z" transform="translate(-486.451 -306.42)" fill="#f46b0d"/>
  </g>
  <g id="Group_1" data-name="Group 1" transform="translate(24.146)">
    <rect id="Rectangle_77" data-name="Rectangle 77" width="2.041" height="9.875" rx="1.021" transform="translate(92.958 18.126)" fill="#3f3d56"/>
    <rect id="Rectangle_78" data-name="Rectangle 78" width="2.3" height="17.186" rx="1.15" transform="translate(92.884 36.208)" fill="#3f3d56"/>
    <rect id="Rectangle_79" data-name="Rectangle 79" width="2.189" height="17.334" rx="1.095" transform="translate(92.92 59.407)" fill="#3f3d56"/>
    <path id="Path_190" data-name="Path 190" d="M377.46,474.88a.378.378,0,0,0,.448.057A1.585,1.585,0,0,1,377.46,474.88Z" transform="translate(-311.67 -369.637)" fill="url(#linear-gradient)"/>
    <path id="Path_192" data-name="Path 192" d="M385.034,491l-.442,2.407-.341,1.841-.62,3.368-6.014,4.21s-.542-.464-1.436-1.2a104.785,104.785,0,0,0-11.448-8.379,12.812,12.812,0,0,0-3.147-1.45Z" transform="translate(-302.317 -379.136)" fill="#feb9b9"/>
    <path id="Path_194" data-name="Path 194" d="M373.638,485.856s7.012,1.2,7.422-1.791-3.609-4.613-7.016-4.814-23.852,1.2-23.852,1.2-3.607,4.81,9.419,5.615Z" transform="translate(-295.332 -372.201)" fill="#3f3d56"/>
    <rect id="Rectangle_82" data-name="Rectangle 82" width="36.68" height="43.495" transform="translate(56.959 14.844)" fill="#2f2e41"/>
    <rect id="Rectangle_83" data-name="Rectangle 83" width="36.68" height="43.495" transform="translate(56.959 15.042)" opacity="0.1"/>
    <path id="Path_198" data-name="Path 198" d="M231.259,430.884a5.887,5.887,0,0,0-2.234,1.581c-3.7,3.66-8.991,12.249-8.991,12.249-6.769-8.063.721-14.434,3.914-16.624.776-.53,1.3-.822,1.3-.822Z" transform="translate(-217.289 -341.583)" fill="#feb9b9"/>
    <path id="Path_199" data-name="Path 199" d="M389.8,288.22s1.8,12.627,8.018,15.633-8.018,8.626-8.018,8.626l-19.441-7.221s11.025-3.609,8.819-14.233Z" transform="translate(-307.486 -259.648)" fill="#feb9b9"/>
    <path id="Path_200" data-name="Path 200" d="M333.276,473.16l-.44,2.4-.357,1.848-.62,3.368-6.014,4.206s-.542-.46-1.436-1.191a104.325,104.325,0,0,0-11.453-8.379,12.733,12.733,0,0,0-3.147-1.45Z" transform="translate(-271.806 -368.624)" fill="#feb9b9"/>
    <path id="Path_202" data-name="Path 202" d="M320.981,469.185s6.293.045,6.671-2.958-3.429-4.613-6.671-4.814-22.939,1.3-22.939,1.3-2.794,5.671,9.6,6.475Z" transform="translate(-264.714 -361.691)" fill="#2f2e41"/>
    <path id="Path_204" data-name="Path 204" d="M392.08,516.411c-.275-.136-.551-.275-.822-.411l-.74-.932-9.7-12.3v.214c-.066,2.054-.764,18.328-6.211,19.831-5.812,1.6-12.824,2-16.02-8.819s-9.036-34.475-15.034-35.879l8.921-7.315s5.907,6.909,8.313,13.522c-.09-.411-4.169-19.47-.822-22.842h29.269s4.518,12.869,7.615,19.244c2.411,4.95,6.03,16.652,8.36,24.571A9.4,9.4,0,0,1,392.08,516.411Z" transform="translate(-291.692 -361.743)" fill="#3f3d56"/>
    <path id="Path_205" data-name="Path 205" d="M412.833,429.972c-4.518,2.674-24.354,1.585-30.807,1.15l-1.758-.127c-.189,0,.029-.107.029-.107l.181-1.82,4.81-12.224,25.754-14.935a22.414,22.414,0,0,0-.653,6.737C410.508,417.5,412.833,429.972,412.833,429.972Z" transform="translate(-313.279 -326.639)" opacity="0.1"/>
    <path id="Path_206" data-name="Path 206" d="M412.525,428.52c-4.518,2.674-24.354,1.585-30.807,1.15l-1.758-.123-.292-.025.32-.082,1.585-.411L384.98,415.4l25.754-14.931a22.428,22.428,0,0,0-.653,6.736C410.2,416.054,412.525,428.52,412.525,428.52Z" transform="translate(-312.971 -325.791)" fill="#efefef"/>
    <path id="Path_207" data-name="Path 207" d="M410.46,407.2c-5.237,1.208-16.763,4.751-21.191,13.308-2.953,5.7-5.438,8.141-7.172,9.164l-1.758-.123a1.009,1.009,0,0,0,.029-.107l1.585-.411,3.405-13.629,25.754-14.931A22.529,22.529,0,0,0,410.46,407.2Z" transform="translate(-313.366 -325.791)" opacity="0.1"/>
    <path id="Path_208" data-name="Path 208" d="M234.8,427.29l6.014,3.607a5.886,5.886,0,0,0-2.234,1.581c-.5-1.462-3.646-3.5-5.077-4.374C234.277,427.582,234.8,427.29,234.8,427.29Z" transform="translate(-226.842 -341.595)" opacity="0.1"/>
    <path id="Path_209" data-name="Path 209" d="M377.141,471.747a.357.357,0,0,1-.411-.057A1.425,1.425,0,0,0,377.141,471.747Z" transform="translate(-311.239 -367.757)" opacity="0.1"/>
    <path id="Path_210" data-name="Path 210" d="M306.174,280.354a11.918,11.918,0,0,1-9.221-3.409s-16.02,4.613-21.445,15.033S233.2,322.847,233.2,322.847s6.416,3.607,5.812,5.41l24.255-14.031s8.626-6.211,11.021-7.615,15.637-10.022,18.443,13.428,0,20.644,0,20.644,4.009,1.4,9.821-9.821,23.848-13.83,23.848-13.83l1-11.822s3.578-7.837.822-11.09a6.983,6.983,0,0,1-1.606-3.393c-.456-3,0-8.006,6.383-12.162,9.821-6.416,13.629-11.624,13.629-11.624s.2-3.812-5.812-5.615S310.352,249.7,310.352,249.7l-.822,3.409,19.293,13.617s-9.62,7.8-17.251,7.615C311.571,274.341,312.989,280.153,306.174,280.354Z" transform="translate(-226.665 -236.95)" fill="#f46b0d"/>
    <path id="Path_211" data-name="Path 211" d="M402.723,294.576a39.15,39.15,0,0,1-1.109-4.9l-10.622,2.806a11.645,11.645,0,0,1-.242,6.128A11.423,11.423,0,0,0,402.723,294.576Z" transform="translate(-319.501 -260.509)" opacity="0.1"/>
    <circle id="Ellipse_10" data-name="Ellipse 10" cx="11.423" cy="11.423" r="11.423" transform="translate(62.977 15.046)" fill="#feb9b9"/>
    <path id="Path_213" data-name="Path 213" d="M428.67,507.07s6.613,13.029,4.609,17.034" transform="translate(-341.845 -388.605)" opacity="0.1"/>
    <path id="Path_221" data-name="Path 221" d="M368.613,218.746c3.171.362,6.182,1.721,9.3,2.464a4.617,4.617,0,0,0,2.407.09c1.212-.374,2.2-1.643,3.454-1.606a3.829,3.829,0,0,1,2.095,1.055,25.77,25.77,0,0,1,2.875,2.563c2.152,2.337,3.487,5.484,5.45,8.026s4.763,5.524,7.552,4.358a16.123,16.123,0,0,1-14.539,12.479c-2.682.184-5.43-.374-8.026.411a6.954,6.954,0,0,1-2.026.493c-1.5,0-2.7-1.372-3.631-2.707-2.185-3.138-3.914-6.7-6.375-9.562a5.242,5.242,0,0,0-2.92-2.021,5.408,5.408,0,0,0-3.228.908,15.15,15.15,0,0,0-4.724,3.286,6.539,6.539,0,0,0-1.594,5.751c.292,1.093.958,2.079.969,3.22.025,1.824-1.585,3.155-1.9,4.929a18.484,18.484,0,0,0-.078,2.243c-.14,2.431-1.731,4.419-3.388,5.952a4.273,4.273,0,0,0-1.553,2.148c-.127.628,0,1.289-.082,1.926-.242,1.577-1.816,2.378-3.208,2.584a9.254,9.254,0,0,1-4.814-.571,5.551,5.551,0,0,0,2.695-5.886c-.62-3.253-3.89-5.59-3.609-8.9a10.311,10.311,0,0,1,.9-2.929,26.831,26.831,0,0,0,1.545-5.549,9.35,9.35,0,0,0-.095-4.424,13.748,13.748,0,0,0-2-3.364,19.13,19.13,0,0,1-2.312-4.736,3.331,3.331,0,0,1-.221-1.569,3.237,3.237,0,0,1,1.007-1.623c1.787-1.878,3.7-3.828,6.092-4.366a13.712,13.712,0,0,1,3.458-.131,40.82,40.82,0,0,0,6.009-.255c1.643-.193,4.419-.168,5.812-1.232,1.3-.994,2.029-2.243,3.627-2.875a10.68,10.68,0,0,1,5.069-.579Z" transform="translate(-288.139 -218.66)" fill="#2f2e41"/>
  </g>
  <ellipse id="Ellipse_9" data-name="Ellipse 9" cx="16.571" cy="2.802" rx="16.571" ry="2.802" transform="translate(287.242 302.866)" fill="#f46b0d"/>
  <path id="Path_179" data-name="Path 179" d="M895.218,830.265a4.825,4.825,0,0,0,1.578-2.386,2.127,2.127,0,0,0-1.1-2.427c-1.014-.387-2.1.317-2.918,1.026s-1.764,1.521-2.839,1.368a4.319,4.319,0,0,0,1.341-4.043,1.7,1.7,0,0,0-.375-.824c-.56-.6-1.583-.346-2.254.132-2.143,1.5-2.74,4.419-2.753,7.034a13.224,13.224,0,0,1-.041-2.885,2.977,2.977,0,0,0-1.088-2.567,3.272,3.272,0,0,0-1.648-.387,3.433,3.433,0,0,0-2.7.766,2.656,2.656,0,0,0,.107,3.3,10.5,10.5,0,0,0,2.79,2.234,6.182,6.182,0,0,1,1.989,1.9,1.715,1.715,0,0,1,.147.342h6.021a16.921,16.921,0,0,0,3.742-2.578Z" transform="translate(-584.552 -529.18)" fill="#f46b0d"/>
  <ellipse id="Ellipse_9-2" data-name="Ellipse 9" cx="10.936" cy="1.849" rx="10.936" ry="1.849" transform="translate(67.585 306.007)" fill="#efefef"/>
  <path id="Path_179-2" data-name="Path 179" d="M890,827.667a3.185,3.185,0,0,0,1.041-1.575,1.4,1.4,0,0,0-.729-1.6c-.669-.256-1.384.21-1.925.677a2.572,2.572,0,0,1-1.874.9,2.85,2.85,0,0,0,.884-2.668,1.123,1.123,0,0,0-.247-.544c-.368-.4-1.044-.228-1.487.087-1.414.994-1.809,2.915-1.817,4.642a8.747,8.747,0,0,1-.027-1.9,1.966,1.966,0,0,0-.718-1.694,2.16,2.16,0,0,0-1.088-.256,2.266,2.266,0,0,0-1.779.506,1.753,1.753,0,0,0,.071,2.176,6.9,6.9,0,0,0,1.841,1.473,4.079,4.079,0,0,1,1.314,1.252,1.128,1.128,0,0,1,.1.226h3.973a11.164,11.164,0,0,0,2.469-1.7Z" transform="translate(-806.96 -522.834)" fill="#efefef"/>
  <ellipse id="Ellipse_12" data-name="Ellipse 12" cx="10.936" cy="1.849" rx="10.936" ry="1.849" transform="translate(5.74 306.007)" fill="#efefef"/>
  <path id="Path_223" data-name="Path 223" d="M890,827.667a3.185,3.185,0,0,0,1.041-1.575,1.4,1.4,0,0,0-.729-1.6c-.669-.256-1.384.21-1.925.677a2.572,2.572,0,0,1-1.874.9,2.85,2.85,0,0,0,.884-2.668,1.123,1.123,0,0,0-.247-.544c-.368-.4-1.044-.228-1.487.087-1.414.994-1.809,2.915-1.817,4.642a8.747,8.747,0,0,1-.027-1.9,1.966,1.966,0,0,0-.718-1.694,2.16,2.16,0,0,0-1.088-.256,2.266,2.266,0,0,0-1.779.506,1.753,1.753,0,0,0,.071,2.176,6.9,6.9,0,0,0,1.841,1.473,4.079,4.079,0,0,1,1.314,1.252,1.128,1.128,0,0,1,.1.226h3.973a11.164,11.164,0,0,0,2.469-1.7Z" transform="translate(-868.805 -522.834)" fill="#efefef"/>
  <rect id="Rectangle_22" data-name="Rectangle 22" width="332.393" height="0.671" transform="translate(0 308.65)" fill="#2f2e41"/>
  <path id="Path_177" data-name="Path 177" d="M801.284,156.865s-34.7-2.094-30.611,22.221c0,0-.824,4.3,3.082,6.247,0,0,.062-1.8,3.56-1.187a16.278,16.278,0,0,0,3.771.181,7.855,7.855,0,0,0,4.607-1.883h0s9.755-4.03,13.546-19.97c0,0,2.806-3.478,2.7-4.373l-5.856,2.5s2,4.224.412,7.734c0,0-.19-7.583-1.315-7.418-.226.033-3.041,1.463-3.041,1.463s3.441,7.356.845,12.705c0,0,.985-9.066-1.921-12.174l-4.121,2.407s4.022,7.6,1.294,13.8c0,0,.7-9.511-2.164-13.216l-3.734,2.913s3.779,7.488,1.475,12.632c0,0-.3-11.069-2.283-11.906,0,0-3.268,2.885-3.767,4.063,0,0,2.588,5.44.981,8.308,0,0-.985-7.377-1.793-7.418,0,0-3.256,4.887-3.594,8.242a17.76,17.76,0,0,1,2.806-8.7,9.818,9.818,0,0,0-4.986,2.578s.507-3.453,5.79-3.758c0,0,2.691-3.709,3.408-3.931,0,0-5.25-.442-8.436.973,0,0,2.8-3.26,9.4-1.776l3.688-3.012s-6.915-.944-9.849.1c0,0,3.375-2.885,10.842-.783l4.014-2.4s-5.9-1.269-9.408-.824c0,0,3.709-2,10.587.169l2.885-1.289s-4.319-.849-5.584-.985-1.331-.482-1.331-.482a14.98,14.98,0,0,1,8.114.9S801.387,157.249,801.284,156.865Z" transform="translate(-485.116 -104.374)" fill="#f46b0d"/>
  <path id="Path_178" data-name="Path 178" d="M739.121,130.665s-15.66-.944-13.83,10.043a2.677,2.677,0,0,0,1.393,2.823s.029-.824,1.611-.54a7.216,7.216,0,0,0,1.7.082,3.528,3.528,0,0,0,2.081-.857h0s4.409-1.821,6.124-9.025c0,0,1.265-1.57,1.215-1.974l-2.646,1.129a4.754,4.754,0,0,1,.194,3.495s-.087-3.425-.593-3.346c-.1,0-1.377.663-1.377.663s1.558,3.326.383,5.741c0,0,.445-4.1-.87-5.5l-1.863,1.1s1.817,3.433.585,6.235c0,0,.317-4.3-.977-5.971l-1.686,1.319s1.706,3.383.668,5.708c0,0-.14-5-1.035-5.382a10.343,10.343,0,0,0-1.7,1.838s1.17,2.473.445,3.754c0,0-.445-3.334-.824-3.351a11.1,11.1,0,0,0-1.624,3.709,8.044,8.044,0,0,1,1.269-3.931,4.434,4.434,0,0,0-2.254,1.166s.231-1.562,2.617-1.7a11.278,11.278,0,0,1,1.541-1.78,9.653,9.653,0,0,0-3.812.442s1.265-1.471,4.245-.8l1.648-1.36s-3.127-.416-4.452.043c0,0,1.525-1.3,4.9-.354L734.013,133a16.569,16.569,0,0,0-4.253-.368s1.677-.9,4.785.074l1.3-.581s-1.952-.383-2.526-.445-.6-.218-.6-.218a6.754,6.754,0,0,1,3.668.412A16.954,16.954,0,0,0,739.121,130.665Z" transform="translate(-470.497 -91.046)" fill="#3f3d56"/>
  <path id="Path_224" data-name="Path 224" d="M739.121,130.665s-15.66-.944-13.83,10.043a2.677,2.677,0,0,0,1.393,2.823s.029-.824,1.611-.54a7.216,7.216,0,0,0,1.7.082,3.528,3.528,0,0,0,2.081-.857h0s4.409-1.821,6.124-9.025c0,0,1.265-1.57,1.215-1.974l-2.646,1.129a4.754,4.754,0,0,1,.194,3.495s-.087-3.425-.593-3.346c-.1,0-1.377.663-1.377.663s1.558,3.326.383,5.741c0,0,.445-4.1-.87-5.5l-1.863,1.1s1.817,3.433.585,6.235c0,0,.317-4.3-.977-5.971l-1.686,1.319s1.706,3.383.668,5.708c0,0-.14-5-1.035-5.382a10.343,10.343,0,0,0-1.7,1.838s1.17,2.473.445,3.754c0,0-.445-3.334-.824-3.351a11.1,11.1,0,0,0-1.624,3.709,8.044,8.044,0,0,1,1.269-3.931,4.434,4.434,0,0,0-2.254,1.166s.231-1.562,2.617-1.7a11.278,11.278,0,0,1,1.541-1.78,9.653,9.653,0,0,0-3.812.442s1.265-1.471,4.245-.8l1.648-1.36s-3.127-.416-4.452.043c0,0,1.525-1.3,4.9-.354L734.013,133a16.569,16.569,0,0,0-4.253-.368s1.677-.9,4.785.074l1.3-.581s-1.952-.383-2.526-.445-.6-.218-.6-.218a6.754,6.754,0,0,1,3.668.412A16.954,16.954,0,0,0,739.121,130.665Z" transform="translate(-711.989 76.68)" fill="#3f3d56"/>
</svg>
