<svg xmlns="http://www.w3.org/2000/svg" width="83.239" height="72.016" viewBox="0 0 83.239 72.016">
  <g id="Group_1386" data-name="Group 1386" transform="translate(-160.72 -30.357)">
    <path id="Exclusion_1" data-name="Exclusion 1" d="M4364.052,16661.908h-19.469a10,10,0,0,1-7.071-2.932l-13.766-13.766a10,10,0,0,1-2.927-7.066v-19.469a10,10,0,0,1,2.927-7.072l13.766-13.766a10.019,10.019,0,0,1,7.071-2.932h9.735v37.066a4.8,4.8,0,1,0,9.609,0v-37.066h.125c.3-.016.6-.025.891-.025,3.25,0,4.305,1.066,5.9,2.68q.075.073.152.152l.125.125,13.766,13.766a9.986,9.986,0,0,1,2.931,7.072v19.469a9.986,9.986,0,0,1-2.931,7.066l-13.766,13.766a9.99,9.99,0,0,1-7.071,2.932Zm-.125-67h-9.609v-.025h9.609v.025Z" transform="translate(-4160.099 -16559.535)" fill="#1b1b1b"/>
    <path id="Union_1" data-name="Union 1" d="M32.34,42.618l-.02.023L-.073,8.585-.149-2.643,30.812,29.024V1.968a4.61,4.61,0,0,1,9.22,0v37.22a4.61,4.61,0,0,1-7.691,3.429Z" transform="translate(203.928 33)" fill="#f46b0d"/>
  </g>
</svg>
