<svg xmlns="http://www.w3.org/2000/svg" width="831" height="729.989" viewBox="0 0 831 729.989">
  <g id="undraw_Mobile_apps_re_3wjf" transform="translate(0 0)">
    <path id="Path_205" data-name="Path 205" d="M908.476,788.577v-72.34S936.668,767.523,908.476,788.577Z" transform="translate(-184.5 -85.005)" fill="#f1f1f1"/>
    <path id="Path_206" data-name="Path 206" d="M910.218,788.564l-53.29-48.921S913.773,753.558,910.218,788.564Z" transform="translate(-184.5 -85.005)" fill="#f1f1f1"/>
    <path id="Path_207" data-name="Path 207" d="M290.959,788.577v-72.34S262.767,767.523,290.959,788.577Z" transform="translate(-184.5 -85.005)" fill="#f1f1f1"/>
    <path id="Path_208" data-name="Path 208" d="M289.218,788.564l53.29-48.921S285.662,753.558,289.218,788.564Z" transform="translate(-184.5 -85.005)" fill="#f1f1f1"/>
    <path id="Path_209" data-name="Path 209" d="M775.256,252.054h-3.862V146.245a61.239,61.239,0,0,0-61.239-61.239H485.984a61.239,61.239,0,0,0-61.239,61.239V726.72a61.239,61.239,0,0,0,61.239,61.239h224.17a61.239,61.239,0,0,0,61.24-61.239V327.37h3.862Z" transform="translate(-184.5 -85.005)" fill="#3f3d56"/>
    <path id="Path_210" data-name="Path 210" d="M712.625,100.938H683.363a21.728,21.728,0,0,1-20.117,29.933H534.822a21.728,21.728,0,0,1-20.117-29.934h-27.33a45.733,45.733,0,0,0-45.733,45.733V726.294a45.733,45.733,0,0,0,45.733,45.733h225.25a45.733,45.733,0,0,0,45.733-45.733h0V146.67a45.733,45.733,0,0,0-45.733-45.733Z" transform="translate(-184.5 -85.005)" fill="#fff"/>
    <path id="Path_211" data-name="Path 211" d="M706.983,762.075H493.017c-24.585,0-44.587-17.853-44.587-39.8V693.469c0-17.49,15.929-31.719,35.508-31.719H716.061c19.579,0,35.508,14.229,35.508,31.719v28.811C751.569,744.223,731.568,762.075,706.983,762.075Z" transform="translate(-184.5 -85.005)" fill="#e5e5e5"/>
    <path id="Path_212" data-name="Path 212" d="M515.509,277.85H467.782a3.229,3.229,0,0,1-3.225-3.225V226.9a3.229,3.229,0,0,1,3.225-3.225h47.727a3.229,3.229,0,0,1,3.225,3.225v47.728A3.229,3.229,0,0,1,515.509,277.85Z" transform="translate(-184.5 -85.005)" fill="#f46b20"/>
    <path id="Path_213" data-name="Path 213" d="M587.746,277.85H540.018a3.229,3.229,0,0,1-3.225-3.225V226.9a3.229,3.229,0,0,1,3.225-3.225h47.727a3.229,3.229,0,0,1,3.225,3.225v47.728A3.229,3.229,0,0,1,587.746,277.85Z" transform="translate(-184.5 -85.005)" fill="#e5e5e5"/>
    <path id="Path_214" data-name="Path 214" d="M659.982,277.85H612.254a3.229,3.229,0,0,1-3.225-3.225V226.9a3.229,3.229,0,0,1,3.225-3.225h47.727a3.229,3.229,0,0,1,3.225,3.225v47.728A3.229,3.229,0,0,1,659.982,277.85Z" transform="translate(-184.5 -85.005)" fill="#e5e5e5"/>
    <path id="Path_215" data-name="Path 215" d="M732.218,277.85H684.491a3.229,3.229,0,0,1-3.225-3.225V226.9a3.229,3.229,0,0,1,3.225-3.225h47.728a3.229,3.229,0,0,1,3.225,3.225v47.728a3.229,3.229,0,0,1-3.225,3.225Z" transform="translate(-184.5 -85.005)" fill="#e5e5e5"/>
    <path id="Path_216" data-name="Path 216" d="M515.339,366.211H467.611a3.229,3.229,0,0,1-3.225-3.225V315.258a3.229,3.229,0,0,1,3.225-3.225h47.728a3.229,3.229,0,0,1,3.225,3.225v47.728A3.229,3.229,0,0,1,515.339,366.211Z" transform="translate(-184.5 -85.005)" fill="#e5e5e5"/>
    <path id="Path_217" data-name="Path 217" d="M587.575,366.211H539.847a3.229,3.229,0,0,1-3.225-3.225V315.258a3.229,3.229,0,0,1,3.225-3.225h47.727a3.229,3.229,0,0,1,3.225,3.225v47.728a3.229,3.229,0,0,1-3.225,3.225Z" transform="translate(-184.5 -85.005)" fill="#e5e5e5"/>
    <path id="Path_218" data-name="Path 218" d="M659.811,366.211H612.084a3.229,3.229,0,0,1-3.225-3.225V315.258a3.229,3.229,0,0,1,3.225-3.225h47.727a3.229,3.229,0,0,1,3.225,3.225v47.728a3.229,3.229,0,0,1-3.225,3.225Z" transform="translate(-184.5 -85.005)" fill="#f46b20"/>
    <path id="Path_219" data-name="Path 219" d="M732.047,366.211H684.32a3.229,3.229,0,0,1-3.225-3.225V315.258a3.229,3.229,0,0,1,3.225-3.225h47.727a3.229,3.229,0,0,1,3.225,3.225v47.728A3.229,3.229,0,0,1,732.047,366.211Z" transform="translate(-184.5 -85.005)" fill="#f46b20"/>
    <path id="Path_220" data-name="Path 220" d="M515.168,454.571H467.44a3.229,3.229,0,0,1-3.225-3.225V403.619a3.229,3.229,0,0,1,3.225-3.225h47.728a3.229,3.229,0,0,1,3.225,3.225v47.727A3.229,3.229,0,0,1,515.168,454.571Z" transform="translate(-184.5 -85.005)" fill="#e5e5e5"/>
    <path id="Path_221" data-name="Path 221" d="M587.4,454.571H539.677a3.229,3.229,0,0,1-3.225-3.225V403.619a3.229,3.229,0,0,1,3.225-3.225H587.4a3.229,3.229,0,0,1,3.225,3.225v47.727A3.229,3.229,0,0,1,587.4,454.571Z" transform="translate(-184.5 -85.005)" fill="#e5e5e5"/>
    <path id="Path_222" data-name="Path 222" d="M659.64,454.571H611.913a3.229,3.229,0,0,1-3.225-3.225V403.619a3.229,3.229,0,0,1,3.225-3.225h47.727a3.229,3.229,0,0,1,3.225,3.225v47.728a3.229,3.229,0,0,1-3.225,3.225Z" transform="translate(-184.5 -85.005)" fill="#e5e5e5"/>
    <path id="Path_223" data-name="Path 223" d="M731.877,454.571H684.149a3.229,3.229,0,0,1-3.225-3.225V403.619a3.229,3.229,0,0,1,3.225-3.225h47.727a3.229,3.229,0,0,1,3.225,3.225v47.728a3.229,3.229,0,0,1-3.225,3.225Z" transform="translate(-184.5 -85.005)" fill="#e5e5e5"/>
    <path id="Path_224" data-name="Path 224" d="M515,542.931H467.27a3.229,3.229,0,0,1-3.225-3.225V491.979a3.229,3.229,0,0,1,3.225-3.225H515a3.229,3.229,0,0,1,3.225,3.225v47.727A3.229,3.229,0,0,1,515,542.931Z" transform="translate(-184.5 -85.005)" fill="#e5e5e5"/>
    <path id="Path_225" data-name="Path 225" d="M587.234,542.931H539.506a3.229,3.229,0,0,1-3.225-3.225V491.979a3.229,3.229,0,0,1,3.225-3.225h47.727a3.229,3.229,0,0,1,3.225,3.225v47.728a3.229,3.229,0,0,1-3.225,3.225Z" transform="translate(-184.5 -85.005)" fill="#e5e5e5"/>
    <path id="Path_226" data-name="Path 226" d="M659.47,542.931H611.742a3.229,3.229,0,0,1-3.225-3.225V491.979a3.229,3.229,0,0,1,3.225-3.225H659.47a3.229,3.229,0,0,1,3.225,3.225v47.728a3.229,3.229,0,0,1-3.225,3.225Z" transform="translate(-184.5 -85.005)" fill="#e5e5e5"/>
    <path id="Path_227" data-name="Path 227" d="M731.706,542.931H683.978a3.229,3.229,0,0,1-3.225-3.225V491.979a3.229,3.229,0,0,1,3.225-3.225h47.728a3.229,3.229,0,0,1,3.225,3.225v47.727a3.229,3.229,0,0,1-3.225,3.225Z" transform="translate(-184.5 -85.005)" fill="#e5e5e5"/>
    <path id="Path_228" data-name="Path 228" d="M515.509,740.291H467.782a3.229,3.229,0,0,1-3.225-3.225V689.339a3.229,3.229,0,0,1,3.225-3.225h47.727a3.229,3.229,0,0,1,3.225,3.225v47.727a3.229,3.229,0,0,1-3.225,3.225Z" transform="translate(-184.5 -85.005)" fill="#fff"/>
    <path id="Path_229" data-name="Path 229" d="M587.746,740.291H540.018a3.229,3.229,0,0,1-3.225-3.225V689.339a3.229,3.229,0,0,1,3.225-3.225h47.727a3.229,3.229,0,0,1,3.225,3.225v47.727a3.229,3.229,0,0,1-3.225,3.225Z" transform="translate(-184.5 -85.005)" fill="#fff"/>
    <path id="Path_230" data-name="Path 230" d="M659.982,740.291H612.254a3.229,3.229,0,0,1-3.225-3.225V689.339a3.229,3.229,0,0,1,3.225-3.225h47.727a3.229,3.229,0,0,1,3.225,3.225v47.727a3.229,3.229,0,0,1-3.225,3.225Z" transform="translate(-184.5 -85.005)" fill="#fff"/>
    <path id="Path_231" data-name="Path 231" d="M732.218,740.291H684.491a3.229,3.229,0,0,1-3.225-3.225V689.339a3.229,3.229,0,0,1,3.225-3.225h47.728a3.229,3.229,0,0,1,3.225,3.225v47.727a3.229,3.229,0,0,1-3.225,3.225Z" transform="translate(-184.5 -85.005)" fill="#fff"/>
    <circle id="Ellipse_40" data-name="Ellipse 40" cx="6.45" cy="6.45" r="6.45" transform="translate(385.661 541.772)" fill="#e5e5e5"/>
    <circle id="Ellipse_41" data-name="Ellipse 41" cx="6.45" cy="6.45" r="6.45" transform="translate(408.88 541.772)" fill="#e5e5e5"/>
    <circle id="Ellipse_42" data-name="Ellipse 42" cx="6.45" cy="6.45" r="6.45" transform="translate(432.098 541.772)" fill="#e5e5e5"/>
    <path id="Path_232" data-name="Path 232" d="M1014.5,789.005h-829a1,1,0,0,1,0-2h829a1,1,0,0,1,0,2Z" transform="translate(-184.5 -85.005)" fill="#cbcbcb"/>
    <path id="Path_233" data-name="Path 233" d="M510.864,592.107a13.049,13.049,0,0,0-1.76-19.932l12.6-44.629-22.964,7.3L490.3,576.11a13.12,13.12,0,0,0,20.569,16Z" transform="translate(-184.5 -85.005)" fill="#ffb7b7"/>
    <path id="Path_234" data-name="Path 234" d="M517.394,564.752a5.97,5.97,0,0,1-1.245.105l-22.03-.441a5.839,5.839,0,0,1-5.66-6.693l22.348-150.991a18.512,18.512,0,0,1,18.257-15.717h0a18.413,18.413,0,0,1,17.83,22.825L531.054,478l-8.983,81.661a5.806,5.806,0,0,1-4.677,5.094Z" transform="translate(-184.5 -85.005)" fill="#3f3d56"/>
    <path id="Path_235" data-name="Path 235" d="M342.105,718.1h12.26l5.833-47.288H342.1Z" fill="#ffb7b7"/>
    <path id="Path_236" data-name="Path 236" d="M523.478,799.108h24.145a15.387,15.387,0,0,1,15.386,15.385v.5H523.479Z" transform="translate(-184.5 -85.005)" fill="#2f2e41"/>
    <path id="Path_237" data-name="Path 237" d="M394.382,714.123l12.183,1.366,11.067-46.343L399.65,667.13Z" fill="#ffb7b7"/>
    <path id="Path_238" data-name="Path 238" d="M576.22,794.8l23.994,2.69h0A15.387,15.387,0,0,1,613.79,814.5l-.056.5-39.285-4.4Z" transform="translate(-184.5 -85.005)" fill="#2f2e41"/>
    <path id="Path_239" data-name="Path 239" d="M515.1,539.96s-16.808,37.209-1.965,61.377l8.843,188.168h20.3l19.7-152,35,45L575.653,787.533l24.832,1.394,34.492-106.422s-26.5-117.349-35.249-120.174l-5.751-26.826Z" transform="translate(-184.5 -85.005)" fill="#2f2e41"/>
    <path id="Path_240" data-name="Path 240" d="M507.618,572.627s-15.142,17.378,24.858,23.378,82-3,83-15S507.618,572.627,507.618,572.627Z" transform="translate(-184.5 -85.005)" fill="#cbcbcb"/>
    <path id="Path_241" data-name="Path 241" d="M708.135,357.058a11.611,11.611,0,0,1-14.059,10.925l-15.12,21.8-15.491-5.957,21.785-30.492a11.674,11.674,0,0,1,22.885,3.719Z" transform="translate(-184.5 -85.005)" fill="#ffb7b7"/>
    <path id="Path_242" data-name="Path 242" d="M580.264,385.112l-21.377-9.671L531.5,377.4s-33.02,38.606-20.02,75.606l-8,129c51,14,74.183-12.258,111-1L603.1,437.636Z" transform="translate(-184.5 -85.005)" fill="#3f3d56"/>
    <path id="Path_243" data-name="Path 243" d="M565.976,394.505l14.287-9.393s19.846-3,27.78,4.7c0,0,26.927,2.254,33.43,8.975l7.16,1.614,23.787-30.8,14.556,7.909-21,57L603.1,437.636Z" transform="translate(-184.5 -85.005)" fill="#3f3d56"/>
    <circle id="Ellipse_43" data-name="Ellipse 43" cx="33.745" cy="33.745" r="33.745" transform="translate(324.422 236.552) rotate(-28.663)" fill="#ffb7b7"/>
    <path id="Path_244" data-name="Path 244" d="M525.533,308.6c6.023-10.834,13.55-17.848,25.943-17.6s23.113-.237,28.689,10.834a18.207,18.207,0,0,0,2.143-8.979,10.283,10.283,0,0,1,4.539,10.345,7.51,7.51,0,0,0,3.708-6.165c4.136,1.376,5.211,7.205,3.119,11.029s-6.2,6.035-10.135,7.9-2.12,11.755-4.691,15.275c-1.795,2.456-2.615,5.467-3.825,8.258a.541.541,0,0,1-.245.256c-2.773,1.546-4.523,4.309-4.033,7.445a1.212,1.212,0,0,1-.039.71c-3.51,6.613-7.3,13.532-13.662,17.478a22.654,22.654,0,0,1-17.019,2.631c-6.5-1.555-12.126-5.867-16.18-11.184s-6.662-11.6-8.622-18c-1.738-5.671-3-11.735-1.624-17.5s6.047-11.112,11.962-11.558" transform="translate(-184.5 -85.005)" fill="#2f2e41"/>
  </g>
</svg>
