<svg xmlns="http://www.w3.org/2000/svg" width="29" height="29" viewBox="0 0 29 29">
  <g id="Icon_feather-instagram" data-name="Icon feather-instagram" transform="translate(-1.5 -1.5)">
    <path id="Path_52" data-name="Path 52" d="M9.5,3h13A6.5,6.5,0,0,1,29,9.5v13A6.5,6.5,0,0,1,22.5,29H9.5A6.5,6.5,0,0,1,3,22.5V9.5A6.5,6.5,0,0,1,9.5,3Z" fill="none" stroke="#f46b0d" stroke-linecap="round" stroke-linejoin="round" stroke-width="3"/>
    <path id="Path_53" data-name="Path 53" d="M22.409,16.372a5.2,5.2,0,1,1-4.381-4.381,5.2,5.2,0,0,1,4.381,4.381Z" transform="translate(-1.209 -1.191)" fill="none" stroke="#f46b0d" stroke-linecap="round" stroke-linejoin="round" stroke-width="3"/>
    <path id="Path_54" data-name="Path 54" d="M26.25,9.75h0" transform="translate(-3.1 -0.9)" fill="none" stroke="#f46b0d" stroke-linecap="round" stroke-linejoin="round" stroke-width="3"/>
  </g>
</svg>
