<svg xmlns="http://www.w3.org/2000/svg" width="26.5" height="26.5" viewBox="0 0 26.5 26.5">
  <path id="Icon_awesome-twitter-square" data-name="Icon awesome-twitter-square" d="M23.661,2.25H2.839A2.84,2.84,0,0,0,0,5.089V25.911A2.84,2.84,0,0,0,2.839,28.75H23.661A2.84,2.84,0,0,0,26.5,25.911V5.089A2.84,2.84,0,0,0,23.661,2.25Zm-2.893,9.393c.012.166.012.337.012.5A10.962,10.962,0,0,1,9.742,23.184a10.987,10.987,0,0,1-5.957-1.739,8.173,8.173,0,0,0,.935.047,7.778,7.778,0,0,0,4.815-1.656,3.885,3.885,0,0,1-3.626-2.691,4.181,4.181,0,0,0,1.751-.071,3.88,3.88,0,0,1-3.105-3.809v-.047a3.877,3.877,0,0,0,1.751.491,3.871,3.871,0,0,1-1.727-3.23A3.831,3.831,0,0,1,5.1,8.52a11.015,11.015,0,0,0,8,4.058,3.888,3.888,0,0,1,6.619-3.543A7.6,7.6,0,0,0,22.182,8.1a3.869,3.869,0,0,1-1.7,2.135,7.72,7.72,0,0,0,2.236-.6A8.166,8.166,0,0,1,20.768,11.643Z" transform="translate(0 -2.25)" fill="#f46b0d"/>
</svg>
