<svg xmlns="http://www.w3.org/2000/svg" width="23" height="23" viewBox="0 0 23 23">
  <path id="Icon_awesome-plus-circle" data-name="Icon awesome-plus-circle" d="M12.063.563a11.5,11.5,0,1,0,11.5,11.5A11.5,11.5,0,0,0,12.063.563Zm6.677,12.8a.558.558,0,0,1-.556.556H13.917v4.266a.558.558,0,0,1-.556.556h-2.6a.558.558,0,0,1-.556-.556V13.917H5.942a.558.558,0,0,1-.556-.556v-2.6a.558.558,0,0,1,.556-.556h4.266V5.942a.558.558,0,0,1,.556-.556h2.6a.558.558,0,0,1,.556.556v4.266h4.266a.558.558,0,0,1,.556.556Z" transform="translate(-0.563 -0.563)" fill="#f46b0d"/>
</svg>
