<svg xmlns="http://www.w3.org/2000/svg" width="22" height="22" viewBox="0 0 22 22">
  <g id="Group_1337" data-name="Group 1337" transform="translate(-0.395)">
    <g id="Group_1336" data-name="Group 1336">
      <circle id="Ellipse_56" data-name="Ellipse 56" cx="11" cy="11" r="11" transform="translate(0.395)" fill="#efefef"/>
    </g>
    <path id="Icon_metro-cross" data-name="Icon metro-cross" d="M10.526,8.378h0L8.09,5.942l2.436-2.436h0a.251.251,0,0,0,0-.355L9.375,2a.252.252,0,0,0-.355,0h0L6.585,4.437,4.149,2h0a.252.252,0,0,0-.355,0L2.644,3.152a.251.251,0,0,0,0,.355h0L5.08,5.942,2.644,8.378h0a.251.251,0,0,0,0,.355L3.795,9.883a.251.251,0,0,0,.355,0h0L6.585,7.448,9.021,9.883h0a.251.251,0,0,0,.355,0l1.151-1.151a.251.251,0,0,0,0-.355Z" transform="translate(4.415 5.058)" fill="#979797"/>
  </g>
</svg>
