<svg xmlns="http://www.w3.org/2000/svg" width="36.163" height="27.122" viewBox="0 0 36.163 27.122">
  <path id="Icon_material-more" data-name="Icon material-more" d="M33.149,4.5h-22.6a2.836,2.836,0,0,0-2.4,1.326L0,18.061l8.152,12.22a3.035,3.035,0,0,0,2.5,1.341h22.5a3.022,3.022,0,0,0,3.014-3.014V7.514A3.022,3.022,0,0,0,33.149,4.5ZM13.561,20.321a2.26,2.26,0,1,1,2.26-2.26A2.257,2.257,0,0,1,13.561,20.321Zm7.534,0a2.26,2.26,0,1,1,2.26-2.26A2.257,2.257,0,0,1,21.095,20.321Zm7.534,0a2.26,2.26,0,1,1,2.26-2.26A2.257,2.257,0,0,1,28.629,20.321Z" transform="translate(0 -4.5)" fill="#f26a1f"/>
</svg>
