<svg xmlns="http://www.w3.org/2000/svg" width="22.781" height="28.038" viewBox="0 0 22.781 28.038">
  <path id="Icon_metro-bin" data-name="Icon metro-bin" d="M6.251,10.69V28.213A1.757,1.757,0,0,0,8,29.966H23.775a1.757,1.757,0,0,0,1.752-1.752V10.69H6.251Zm5.257,15.771H9.756V14.194h1.752Zm3.5,0H13.26V14.194h1.752Zm3.5,0H16.765V14.194h1.752Zm3.5,0H20.27V14.194h1.752ZM25.965,5.433h-5.7V3.242a1.318,1.318,0,0,0-1.314-1.314H12.822a1.318,1.318,0,0,0-1.314,1.314v2.19h-5.7A1.318,1.318,0,0,0,4.5,6.747v2.19H27.279V6.747a1.318,1.318,0,0,0-1.314-1.314Zm-7.447,0H13.26V3.7h5.257v1.73Z" transform="translate(-4.499 -1.928)" fill="red"/>
</svg>
