<svg id="Layer_2" data-name="Layer 2" xmlns="http://www.w3.org/2000/svg" width="34" height="33" viewBox="0 0 34 33">
  <g id="search">
    <rect id="Rectangle_318" data-name="Rectangle 318" width="34" height="33" fill="#bdbdbd" opacity="0"/>
    <path id="Path_57" data-name="Path 57" d="M28.255,25.73,23.406,21a10.9,10.9,0,0,0,2.41-6.837A11.287,11.287,0,0,0,14.408,3,11.287,11.287,0,0,0,3,14.163,11.287,11.287,0,0,0,14.408,25.325,11.454,11.454,0,0,0,21.4,22.967l4.834,4.744a1.448,1.448,0,0,0,2.025,0,1.374,1.374,0,0,0,0-1.981ZM5.852,14.163a8.466,8.466,0,0,1,8.556-8.372,8.466,8.466,0,0,1,8.556,8.372,8.466,8.466,0,0,1-8.556,8.372,8.466,8.466,0,0,1-8.556-8.372Z" transform="translate(1.166 1.166)" fill="#bdbdbd"/>
  </g>
</svg>
